<svg width="233" height="726" viewBox="0 0 233 726" fill="none" xmlns="http://www.w3.org/2000/svg">
<path d="M0.815162 293.713C3.86668 326.66 17.4546 360.125 38.5273 386.575C44.0546 393.533 60.4636 409.69 67.2576 414.808C90.3455 432.345 116.37 443.788 142.682 448.1L146.77 448.733L146.885 456.208C147.23 480.818 155.636 504.048 171.47 524.288C173.427 526.818 175.615 529.405 176.306 529.98L177.515 531.073L175.039 534.005C162.142 549.358 155.636 567.125 155.636 587.193C155.636 614.735 169.051 640.035 191.448 654.813C193.291 656.02 194.788 657.17 194.788 657.343C194.788 657.573 193.751 658.78 192.485 659.988C180.509 671.66 178.494 692.188 187.821 706.448C199.048 723.64 221.503 730.425 241.194 722.605C253.342 717.775 263.13 706.85 265.951 695.005C268.427 684.655 266.009 672.408 260.021 664.415C259.215 663.38 258.697 662.403 258.755 662.288C258.87 662.173 261.806 660.678 265.318 658.895C299.921 641.358 316.848 599.9 304.758 562.41C303.836 559.478 303.145 557.063 303.203 557.063C303.261 557.005 305.909 555.625 309.076 553.958C354.388 530.095 377.879 480.3 367.458 430.045C364.003 413.543 355.712 396.178 344.658 382.55C340.167 376.973 330.379 367.543 325.024 363.633C322.779 361.908 320.879 360.298 320.879 360.01C320.879 359.78 321.858 357.538 323.124 355.065C345.636 309.985 347.536 255.878 328.133 209.303C323.758 198.78 314.948 182.623 310.055 176.298L308.673 174.4L315.582 167.27C338.727 143.293 348.227 111.38 341.606 79.64C335.676 51.35 316.561 26.51 289.73 12.365C274.358 4.25754 257.661 0.175039 239.697 0.175038C229.794 0.175038 221.618 1.21004 212.348 3.56754C167.727 15.125 136.176 54.2825 136.003 98.3275L135.945 106.435L131.57 107.413C119.939 109.943 100.997 117.36 89.1364 123.973C47.8546 147.03 17.5121 186.418 5.76668 232.188C3.23334 241.905 2.1394 248.115 1.04547 258.35C0.124253 266.688 0.00910128 285.145 0.815162 293.713Z" fill="#404040"/>
</svg>
