<svg width="238" height="726" viewBox="0 0 238 726" fill="none" xmlns="http://www.w3.org/2000/svg">
<path d="M237.09 432.118C234.039 399.171 220.451 365.706 199.378 339.256C193.851 332.298 177.442 316.141 170.648 311.023C147.56 293.486 121.536 282.043 95.2234 277.731L91.1355 277.098L91.0204 269.623C90.6749 245.013 82.2689 221.783 66.4355 201.543C64.4779 199.013 62.2901 196.426 61.5992 195.851L60.3901 194.758L62.8658 191.826C75.7628 176.473 82.2689 158.706 82.2689 138.638C82.2689 111.096 68.8537 85.7959 46.4567 71.0184C44.6143 69.8109 43.1173 68.6609 43.1173 68.4884C43.1173 68.2584 44.1537 67.0509 45.4204 65.8434C57.3961 54.1709 59.4113 33.6434 50.084 19.3834C38.8567 2.1909 16.4022 -4.5941 -3.28871 3.2259C-15.4372 8.0559 -25.2251 18.9809 -28.0463 30.8259C-30.522 41.1759 -28.1039 53.4234 -22.116 61.4159C-21.3099 62.4509 -20.7917 63.4284 -20.8493 63.5434C-20.9645 63.6584 -23.9008 65.1534 -27.413 66.9359C-62.016 84.4734 -78.9433 125.931 -66.8523 163.421C-65.9311 166.353 -65.2402 168.768 -65.2978 168.768C-65.3554 168.826 -68.0039 170.206 -71.1705 171.873C-116.483 195.736 -139.974 245.531 -129.552 295.786C-126.098 312.288 -117.807 329.653 -106.752 343.281C-102.261 348.858 -92.4736 358.288 -87.119 362.198C-84.8736 363.923 -82.9736 365.533 -82.9736 365.821C-82.9736 366.051 -83.9524 368.293 -85.219 370.766C-107.731 415.846 -109.631 469.953 -90.2281 516.528C-85.8524 527.051 -77.0433 543.208 -72.1493 549.533L-70.7675 551.431L-77.6766 558.561C-100.822 582.538 -110.322 614.451 -103.701 646.191C-97.7706 674.481 -78.6554 699.321 -51.8251 713.466C-36.4524 721.573 -19.7554 725.656 -1.79177 725.656C8.11126 725.656 16.287 724.621 25.5567 722.263C70.1779 710.706 101.729 671.548 101.902 627.503L101.96 619.396L106.335 618.418C117.966 615.888 136.908 608.471 148.769 601.858C190.051 578.801 220.393 539.413 232.139 493.643C234.672 483.926 235.766 477.716 236.86 467.481C237.781 459.143 237.896 440.686 237.09 432.118Z" fill="#404040"/>
</svg>
